<?xml version="1.0" standalone="no"?>
<!DOCTYPE svg PUBLIC "-//W3C//DTD SVG 20010904//EN"
 "http://www.w3.org/TR/2001/REC-SVG-20010904/DTD/svg10.dtd">
<svg version="1.0" xmlns="http://www.w3.org/2000/svg"
 width="2050.000000pt" height="2050.000000pt" viewBox="0 0 2050.000000 2050.000000"
 preserveAspectRatio="xMidYMid meet">
<g transform="translate(0.000000,2050.000000) scale(0.100000,-0.100000)"
fill="#000000" stroke="none">
<path d="M4256 18577 c-16 -13 -27 -28 -25 -33 2 -6 880 -1228 1951 -2716
l1947 -2705 -1336 -2564 c-734 -1410 -1338 -2570 -1340 -2576 -4 -10 543 -13
2716 -13 l2721 0 2 654 3 655 350 -486 c193 -268 371 -517 397 -553 l47 -66
-260 -500 c-143 -274 -285 -547 -315 -605 l-54 -107 1446 -2028 c795 -1116
1447 -2030 1448 -2030 0 -1 304 -4 674 -8 465 -5 672 -4 672 3 0 6 -670 943
-1490 2081 l-1490 2071 36 71 c30 59 38 68 48 57 8 -8 863 -1195 1901 -2639
1038 -1444 1891 -2629 1895 -2634 9 -9 70 29 70 44 0 5 -862 1206 -1915 2670
l-1916 2662 1340 2572 1339 2571 -131 3 c-142 3 -4131 -33 -4784 -44 l-393 -6
0 -534 c0 -293 3 -535 8 -537 4 -2 689 6 1522 19 2043 30 2000 30 2000 23 0
-4 -353 -684 -784 -1511 -431 -828 -792 -1522 -803 -1541 l-18 -36 -422 587
-423 587 0 612 0 613 -442 2 -443 3 -562 782 -563 781 319 613 320 613 -22 30
c-12 17 -491 689 -1064 1493 -574 805 -1043 1465 -1043 1468 0 3 544 5 1210 5
l1210 0 2 -272 3 -273 538 -3 537 -2 0 815 0 815 -2801 0 c-1900 0 -2798 -3
-2794 -10 4 -6 652 -916 1442 -2023 789 -1106 1454 -2039 1477 -2072 l42 -60
-41 -78 -41 -77 -1939 2695 c-1067 1482 -1942 2695 -1945 2695 -3 0 -18 -11
-34 -23z m5114 -7179 l528 -733 -44 -3 -44 -3 0 -805 0 -804 -1290 0 c-709 0
-1290 2 -1290 5 0 12 1604 3084 1609 3080 2 -3 241 -334 531 -737z"/>
</g>
</svg>
